<svg fill="none" height="28" viewBox="0 0 28 28" width="28" xmlns="http://www.w3.org/2000/svg" xmlns:xlink="http://www.w3.org/1999/xlink"><filter id="a" color-interpolation-filters="sRGB" filterUnits="userSpaceOnUse" height="18" width="28" x="0" y="10"><feFlood flood-opacity="0" result="BackgroundImageFix"/><feGaussianBlur in="BackgroundImageFix" stdDeviation="1"/><feComposite in2="SourceAlpha" operator="in" result="effect1_backgroundBlur_192_1042"/><feColorMatrix in="SourceAlpha" result="hardAlpha" type="matrix" values="0 0 0 0 0 0 0 0 0 0 0 0 0 0 0 0 0 0 127 0"/><feOffset/><feGaussianBlur stdDeviation="2"/><feComposite in2="hardAlpha" operator="out"/><feColorMatrix type="matrix" values="0 0 0 0 0.231373 0 0 0 0 0.407843 0 0 0 0 1 0 0 0 0.1 0"/><feBlend in2="effect1_backgroundBlur_192_1042" mode="normal" result="effect2_dropShadow_192_1042"/><feBlend in="SourceGraphic" in2="effect2_dropShadow_192_1042" mode="normal" result="shape"/><feColorMatrix in="SourceAlpha" result="hardAlpha" type="matrix" values="0 0 0 0 0 0 0 0 0 0 0 0 0 0 0 0 0 0 127 0"/><feOffset/><feGaussianBlur stdDeviation="1.5"/><feComposite in2="hardAlpha" k2="-1" k3="1" operator="arithmetic"/><feColorMatrix type="matrix" values="0 0 0 0 0.231373 0 0 0 0 0.407843 0 0 0 0 1 0 0 0 0.38 0"/><feBlend in2="shape" mode="normal" result="effect3_innerShadow_192_1042"/></filter><filter id="b" color-interpolation-filters="sRGB" filterUnits="userSpaceOnUse" height="28" width="18" x="0" y="0"><feFlood flood-opacity="0" result="BackgroundImageFix"/><feGaussianBlur in="BackgroundImageFix" stdDeviation="1"/><feComposite in2="SourceAlpha" operator="in" result="effect1_backgroundBlur_192_1042"/><feColorMatrix in="SourceAlpha" result="hardAlpha" type="matrix" values="0 0 0 0 0 0 0 0 0 0 0 0 0 0 0 0 0 0 127 0"/><feOffset/><feGaussianBlur stdDeviation="2"/><feComposite in2="hardAlpha" operator="out"/><feColorMatrix type="matrix" values="0 0 0 0 0.231373 0 0 0 0 0.407843 0 0 0 0 1 0 0 0 0.1 0"/><feBlend in2="effect1_backgroundBlur_192_1042" mode="normal" result="effect2_dropShadow_192_1042"/><feBlend in="SourceGraphic" in2="effect2_dropShadow_192_1042" mode="normal" result="shape"/><feColorMatrix in="SourceAlpha" result="hardAlpha" type="matrix" values="0 0 0 0 0 0 0 0 0 0 0 0 0 0 0 0 0 0 127 0"/><feOffset/><feGaussianBlur stdDeviation="1.5"/><feComposite in2="hardAlpha" k2="-1" k3="1" operator="arithmetic"/><feColorMatrix type="matrix" values="0 0 0 0 0.231373 0 0 0 0 0.407843 0 0 0 0 1 0 0 0 0.38 0"/><feBlend in2="shape" mode="normal" result="effect3_innerShadow_192_1042"/></filter><linearGradient id="c"><stop offset="0" stop-color="#344ea6" stop-opacity=".26"/><stop offset=".505208" stop-color="#587eff" stop-opacity=".12"/><stop offset="1" stop-color="#829eff" stop-opacity=".04"/></linearGradient><linearGradient id="d" gradientUnits="userSpaceOnUse" x1="20.75" x2="48.4563" xlink:href="#c" y1="6" y2="18.3555"/><linearGradient id="e"><stop offset="0" stop-color="#fff" stop-opacity=".15"/><stop offset="1" stop-color="#fff" stop-opacity=".44"/></linearGradient><linearGradient id="f" gradientUnits="userSpaceOnUse" x1="24.25" x2="37.0733" xlink:href="#e" y1="17" y2="22.4957"/><linearGradient id="g" gradientUnits="userSpaceOnUse" x1=".75" x2="28.4563" xlink:href="#c" y1="-4" y2="8.35552"/><linearGradient id="h" gradientUnits="userSpaceOnUse" x1="4.25" x2="17.0733" xlink:href="#e" y1="7" y2="12.4957"/><mask id="i" fill="#fff"><path clip-rule="evenodd" d="m7 4c-1.65685 0-3 1.34315-3 3v14c0 1.6569 1.34315 3 3 3h4c1.6569 0 3-1.3431 3-3v-14c0-1.65685-1.3431-3-3-3zm2 17c.55228 0 1-.4477 1-1s-.44772-1-1-1-1 .4477-1 1 .44772 1 1 1z" fill="#fff" fill-rule="evenodd"/></mask><g filter="url(#a)" shape-rendering="crispEdges"><rect fill="url(#d)" height="20" rx="3" transform="matrix(0 1 -1 0 38 -10)" width="10" x="24" y="14"/><rect height="19.75" rx="2.875" stroke="url(#f)" stroke-opacity=".7" stroke-width=".25" transform="matrix(0 1 -1 0 38 -9.75)" width="9.75" x="23.875" y="14.125"/></g><rect fill="#3b68ff" height="20" rx="3" transform="matrix(.70710678 .70710678 -.70710678 .70710678 7.849232 -10.949722)" width="10" x="17.1421" y="4"/><g filter="url(#b)"><path clip-rule="evenodd" d="m7 4c-1.65685 0-3 1.34315-3 3v14c0 1.6569 1.34315 3 3 3h4c1.6569 0 3-1.3431 3-3v-14c0-1.65685-1.3431-3-3-3zm2 17c.55228 0 1-.4477 1-1s-.44772-1-1-1-1 .4477-1 1 .44772 1 1 1z" fill="url(#g)" fill-rule="evenodd" shape-rendering="crispEdges"/><path d="m4.25 7c0-1.51878 1.23122-2.75 2.75-2.75v-.5c-1.79493 0-3.25 1.45507-3.25 3.25zm0 14v-14h-.5v14zm2.75 2.75c-1.51878 0-2.75-1.2312-2.75-2.75h-.5c0 1.7949 1.45507 3.25 3.25 3.25zm4 0h-4v.5h4zm2.75-2.75c0 1.5188-1.2312 2.75-2.75 2.75v.5c1.7949 0 3.25-1.4551 3.25-3.25zm0-14v14h.5v-14zm-2.75-2.75c1.5188 0 2.75 1.23122 2.75 2.75h.5c0-1.79493-1.4551-3.25-3.25-3.25zm-4 0h4v-.5h-4zm2.75 15.75c0 .4142-.33579.75-.75.75v.5c.69036 0 1.25-.5596 1.25-1.25zm-.75-.75c.41421 0 .75.3358.75.75h.5c0-.6904-.55964-1.25-1.25-1.25zm-.75.75c0-.4142.33579-.75.75-.75v-.5c-.69036 0-1.25.5596-1.25 1.25zm.75.75c-.41421 0-.75-.3358-.75-.75h-.5c0 .6904.55964 1.25 1.25 1.25z" fill="url(#h)" fill-opacity=".7" mask="url(#i)"/></g></svg>